<svg width="27" height="27" viewBox="0 0 27 27" fill="none" xmlns="http://www.w3.org/2000/svg">
<path d="M10.7142 8.39362C10.7954 8.3395 10.9415 8.26643 11.039 8.23126C11.1878 8.17984 11.2554 8.17172 11.4719 8.17984C11.6505 8.18796 11.775 8.20961 11.8778 8.2502C11.959 8.28267 12.0862 8.34762 12.1593 8.39632C12.235 8.44233 12.3487 8.55057 12.419 8.63175C12.4921 8.72105 12.576 8.86177 12.622 8.98354C12.6897 9.15943 12.7005 9.22167 12.7005 9.4571C12.6978 9.66276 12.6842 9.76288 12.6436 9.87654C12.6112 9.95772 12.5706 10.0551 12.5489 10.093C12.53 10.1309 12.4705 10.2175 12.4163 10.2824C12.3622 10.3501 12.2404 10.4556 12.1457 10.5179C12.0429 10.5855 11.8914 10.6532 11.7696 10.6856C11.6586 10.7181 11.499 10.7425 11.4178 10.7425C11.3366 10.7425 11.1851 10.7154 11.0795 10.6856C10.974 10.6532 10.8198 10.5801 10.7332 10.5233C10.6493 10.4665 10.5383 10.3744 10.4896 10.3203C10.4436 10.2662 10.3706 10.1715 10.33 10.1093C10.2894 10.047 10.2353 9.91171 10.2082 9.80888C10.1838 9.70605 10.1622 9.52745 10.1649 9.41651C10.1649 9.30556 10.1811 9.16484 10.1974 9.10531C10.2163 9.04578 10.2461 8.9673 10.2623 8.92942C10.2786 8.89153 10.33 8.80764 10.3733 8.73999C10.4166 8.67234 10.4788 8.59116 10.5086 8.55598C10.541 8.5208 10.633 8.44774 10.7142 8.39362Z" fill="#FF595D"/>
<path d="M14.9492 8.25832C15.0385 8.22584 15.1359 8.19608 15.1657 8.18796C15.1955 8.17984 15.3308 8.17984 15.4634 8.18525C15.623 8.19066 15.7583 8.21231 15.8557 8.2502C15.9369 8.27996 16.0803 8.36115 16.1723 8.4288C16.2806 8.50457 16.3834 8.61281 16.4565 8.71834C16.5187 8.81306 16.5864 8.93754 16.6053 8.99707C16.627 9.0566 16.6513 9.12966 16.6567 9.15943C16.6648 9.1892 16.6784 9.30015 16.6865 9.40298C16.7 9.55452 16.6919 9.63299 16.6405 9.79535C16.608 9.9063 16.5404 10.0578 16.4944 10.1336C16.4457 10.2067 16.3645 10.3095 16.3131 10.3609C16.2616 10.4123 16.1588 10.4908 16.0857 10.5395C16.01 10.5882 15.8666 10.6532 15.761 10.6856C15.6555 10.7154 15.5039 10.7425 15.4228 10.7425C15.3416 10.7425 15.2009 10.7235 15.1116 10.6992C15.0223 10.6748 14.9059 10.6342 14.8545 10.6072C14.8031 10.5801 14.7111 10.526 14.6515 10.4854C14.592 10.4448 14.5027 10.369 14.454 10.3149C14.408 10.2581 14.3268 10.1363 14.2754 10.0389C14.224 9.94148 14.1699 9.78994 14.1536 9.70064C14.1374 9.61134 14.1239 9.48957 14.1239 9.43004C14.1239 9.3705 14.1455 9.2352 14.1726 9.13237C14.1996 9.02954 14.2565 8.88071 14.2998 8.80764C14.343 8.73188 14.4269 8.62363 14.4892 8.56139C14.5487 8.50186 14.6407 8.42068 14.6921 8.38279C14.7435 8.34491 14.8599 8.28808 14.9492 8.25832Z" fill="#FF595D"/>
<path d="M5.83523 12.1253C5.89206 12.0604 5.98677 11.9846 6.0463 11.9575C6.1329 11.9197 6.23302 11.9088 6.56045 11.9088C6.92848 11.9061 6.97989 11.9115 7.10166 11.9684C7.17473 12.0035 7.26944 12.0739 7.30732 12.1253C7.34521 12.1767 7.39121 12.2606 7.41015 12.312C7.4318 12.3743 7.43992 12.6828 7.43992 13.2456C7.43992 13.7057 7.45345 14.2252 7.46969 14.3957C7.48322 14.5662 7.51298 14.78 7.53463 14.8693C7.55628 14.9586 7.59687 15.1344 7.62664 15.2616C7.65641 15.3888 7.72406 15.6188 7.77818 15.7758C7.8323 15.9327 7.95678 16.2169 8.05149 16.4117L8.0549 16.4184C8.15129 16.6085 8.25212 16.8074 8.28421 16.8582C8.31668 16.9096 8.38433 17.0206 8.43845 17.1018C8.48987 17.1829 8.636 17.3778 8.76318 17.5347C8.89037 17.6917 9.13391 17.9569 9.30439 18.1246C9.47758 18.2924 9.62641 18.4277 9.63724 18.4277C9.65077 18.4277 9.7103 18.4737 9.77254 18.5305C9.83748 18.5874 10.0161 18.7173 10.173 18.8201C10.33 18.9229 10.5979 19.0745 10.7684 19.1584C10.9388 19.2449 11.1959 19.3559 11.3366 19.41C11.4774 19.4614 11.7047 19.5345 11.8373 19.5724C11.9699 19.6103 12.1403 19.6536 12.2161 19.6698C12.2892 19.686 12.4786 19.7212 12.6355 19.7456C12.8168 19.7726 13.0983 19.7916 13.4068 19.7916C13.6936 19.7943 13.9832 19.7807 14.1103 19.7591C14.2294 19.7402 14.4188 19.705 14.5298 19.6833C14.6407 19.659 14.8734 19.6049 15.0439 19.5588C15.2144 19.5128 15.4201 19.4452 15.4958 19.41C15.5743 19.3775 15.6501 19.3478 15.6663 19.3478C15.6826 19.3478 15.8124 19.2882 15.9559 19.2152C16.102 19.1448 16.2752 19.0555 16.3428 19.0203C16.4105 18.9825 16.5783 18.8769 16.7136 18.7849C16.8516 18.6929 17.0221 18.5738 17.0924 18.5197C17.1655 18.4656 17.2764 18.3709 17.3441 18.3087C17.4117 18.2491 17.5795 18.084 17.7175 17.9406C17.8582 17.7999 18.0585 17.5699 18.164 17.4319C18.2723 17.2939 18.3724 17.1586 18.3859 17.1342C18.3994 17.1099 18.4509 17.0368 18.4941 16.9664C18.5402 16.8988 18.6592 16.6796 18.7566 16.4794C18.8541 16.2791 18.965 16.041 19.0029 15.9517C19.0381 15.8624 19.1084 15.654 19.1571 15.4916C19.2058 15.3266 19.2545 15.1507 19.2681 15.0993C19.2789 15.0479 19.3087 14.8774 19.3303 14.7204C19.352 14.5635 19.379 14.2847 19.3871 14.098C19.3953 13.9113 19.4061 13.435 19.4142 13.0346C19.4223 12.5637 19.4386 12.2904 19.4602 12.2498C19.4764 12.2173 19.517 12.1551 19.5468 12.1118C19.5793 12.0685 19.6686 12.0063 19.7443 11.9711C19.8742 11.9115 19.9257 11.9061 20.2856 11.9061C20.6644 11.9061 20.6942 11.9088 20.8214 11.9738C20.8944 12.0144 20.9783 12.0712 21.0054 12.1037C21.0324 12.1361 21.073 12.2065 21.1001 12.2579C21.1434 12.3445 21.1434 12.45 21.1271 13.5298C21.1163 14.3795 21.1001 14.7664 21.0703 14.9234C21.0487 15.0424 21.0108 15.2481 20.9864 15.3834C20.9621 15.516 20.9107 15.7352 20.8728 15.8705C20.8322 16.0031 20.7781 16.1817 20.751 16.2629C20.7239 16.3441 20.6698 16.4956 20.6319 16.6011C20.5913 16.704 20.5075 16.9069 20.4398 17.0476C20.3749 17.1883 20.3045 17.3345 20.2828 17.3724C20.2585 17.4102 20.2071 17.5077 20.1611 17.5888C20.1178 17.67 20.0204 17.8351 19.9446 17.9542C19.8715 18.0732 19.7768 18.2166 19.7335 18.2708C19.6929 18.3249 19.628 18.4142 19.5901 18.471C19.5522 18.5251 19.398 18.7119 19.2491 18.885C19.0976 19.0582 18.8541 19.3099 18.7079 19.4452C18.5591 19.5778 18.3616 19.7564 18.2641 19.8376C18.1667 19.9188 17.9259 20.0919 17.7283 20.2272C17.5308 20.3625 17.3522 20.4789 17.336 20.4897C17.317 20.4978 17.2412 20.5384 17.1682 20.5763C17.0924 20.6169 16.93 20.6981 16.8029 20.7576C16.6757 20.8172 16.5241 20.8902 16.4646 20.92C16.4051 20.9471 16.2725 21.0012 16.1669 21.0418C16.0614 21.0796 15.8747 21.1419 15.7475 21.1798C15.6203 21.2177 15.4336 21.2691 15.3281 21.2961C15.2225 21.3259 15.0223 21.3719 14.8816 21.4017C14.7409 21.4314 14.5704 21.4612 14.5027 21.472C14.4351 21.4801 14.3133 21.4937 14.2321 21.5045C14.1509 21.5153 13.7964 21.5207 13.4474 21.5207C13.0983 21.518 12.6843 21.5045 12.5273 21.4883C12.3703 21.4747 12.0916 21.4314 11.9049 21.3936C11.7182 21.3557 11.5044 21.307 11.4313 21.2853C11.3556 21.2637 11.1932 21.215 11.066 21.1744C10.9388 21.1365 10.7575 21.0742 10.6601 21.0364C10.5627 20.9985 10.3868 20.92 10.2677 20.8659C10.1487 20.809 10.0215 20.7522 9.98361 20.7414C9.94573 20.7306 9.89702 20.7062 9.87537 20.6873C9.85372 20.671 9.74277 20.6034 9.63182 20.5411C9.52088 20.4789 9.33686 20.3707 9.22592 20.3003C9.11497 20.2299 8.92554 20.1001 8.80648 20.0108C8.68741 19.9242 8.4574 19.732 8.29233 19.5886C8.12726 19.4452 7.9216 19.2504 7.8323 19.1556C7.743 19.0609 7.60499 18.904 7.52381 18.8066C7.44533 18.7091 7.2965 18.5197 7.19908 18.3871C7.09896 18.2518 6.97989 18.0895 6.93659 18.0218C6.89059 17.9542 6.7607 17.7296 6.64705 17.5212C6.53339 17.3128 6.43868 17.1288 6.43868 17.1153C6.43868 17.099 6.42786 17.0747 6.41162 17.0612C6.39538 17.0449 6.33585 16.9123 6.27632 16.7635C6.21678 16.6147 6.11937 16.3522 6.06254 16.1817C6.00571 16.0112 5.93265 15.7541 5.90288 15.6134C5.87041 15.4727 5.81899 15.221 5.78652 15.0587C5.7324 14.7881 5.72699 14.6501 5.71346 13.5704C5.70534 12.9155 5.70805 12.3499 5.71616 12.312C5.72428 12.2742 5.7784 12.1903 5.83523 12.1253Z" fill="#3F526F"/>
<circle cx="13.5" cy="13.5" r="12" stroke="#EEEEEE" stroke-width="3"/>
</svg>
